<svg xmlns="http://www.w3.org/2000/svg" viewBox="0 0 2048.23 2048.23"><defs><style>.cls-1{fill:#0073ea;}.cls-2{fill:#fff;}</style></defs><g id="Layer_2" data-name="Layer 2"><g id="Camada_1" data-name="Camada 1"><rect class="cls-1" width="2048.23" height="2048.23" rx="1024.11"/><path class="cls-2" d="M955.44,1197,651.38,737.75c-54.75-82.69-166.17-105.35-248.86-50.56a179.53,179.53,0,0,0-50.6,248.86L656,1395.23c54.76,82.69,166.18,105.35,248.87,50.6s105.35-166.17,50.6-248.86"/><path class="cls-2" d="M1479.21,1197,1175.15,737.75C1120.4,655.06,1009,632.4,926.28,687.19a179.54,179.54,0,0,0-50.6,248.86l304.06,459.18c54.75,82.69,166.17,105.35,248.86,50.6S1534,1279.66,1479.21,1197"/><path class="cls-2" d="M1645.73,984.49c82.69-54.75,105.34-166.18,50.59-248.88a179.58,179.58,0,1,0-50.59,248.88"/></g></g></svg>